<svg width="15" height="20" viewBox="0 0 15 20" fill="none" xmlns="http://www.w3.org/2000/svg">
<path fill-rule="evenodd" clip-rule="evenodd" d="M9.09091 1.81818V2.08171C11.7195 2.86403 13.6364 5.29907 13.6364 8.18182V14.5455H14.5455V16.3636H0V14.5455H0.909091V8.18182C0.909091 5.29907 2.82592 2.86403 5.45455 2.08171V1.81818C5.45455 0.814028 6.26857 0 7.27273 0C8.27688 0 9.09091 0.814028 9.09091 1.81818ZM2.72727 14.5455H11.8182V8.18182C11.8182 5.67143 9.78311 3.63636 7.27273 3.63636C4.76234 3.63636 2.72727 5.67143 2.72727 8.18182V14.5455ZM9.09091 18.1818V17.2727H5.45455V18.1818C5.45455 19.186 6.26857 20 7.27273 20C8.27688 20 9.09091 19.186 9.09091 18.1818Z" fill="white"/>
</svg>
