<svg width="22" height="19" viewBox="0 0 22 19" fill="none" xmlns="http://www.w3.org/2000/svg">
<path d="M5 0C4.44772 0 4 0.447715 4 1V3C4 3.55228 4.44772 4 5 4C5.55228 4 6 3.55228 6 3V1C6 0.447715 5.55228 0 5 0Z" fill="#ACACAC"/>
<path fill-rule="evenodd" clip-rule="evenodd" d="M12 19C14.973 19 17.441 16.8377 17.917 14H18C20.2091 14 22 12.2091 22 10C22 7.79086 20.2091 6 18 6V5H0V13C0 16.3137 2.68629 19 6 19H12ZM2 7V13C2 15.2091 3.79086 17 6 17H12C14.2091 17 16 15.2091 16 13V7H2ZM20 10C20 11.1046 19.1046 12 18 12V8C19.1046 8 20 8.89543 20 10Z" fill="#ACACAC"/>
<path d="M8 1C8 0.447715 8.44771 0 9 0C9.55228 0 10 0.447715 10 1V3C10 3.55228 9.55228 4 9 4C8.44771 4 8 3.55228 8 3V1Z" fill="#ACACAC"/>
<path d="M13 0C12.4477 0 12 0.447715 12 1V3C12 3.55228 12.4477 4 13 4C13.5523 4 14 3.55228 14 3V1C14 0.447715 13.5523 0 13 0Z" fill="#ACACAC"/>
</svg>
