<svg width="22" height="16" viewBox="0 0 22 16" fill="none" xmlns="http://www.w3.org/2000/svg">
<path fill-rule="evenodd" clip-rule="evenodd" d="M11 4.77832C12.6569 4.77832 14 6.12147 14 7.77832C14 9.08454 13.1652 10.1958 12 10.6076V15.7783H10V10.6076C8.83481 10.1958 8 9.08454 8 7.77832C8 6.12147 9.34315 4.77832 11 4.77832ZM11 6.77832C11.5523 6.77832 12 7.22604 12 7.77832C12 8.3306 11.5523 8.77832 11 8.77832C10.4477 8.77832 10 8.3306 10 7.77832C10 7.22604 10.4477 6.77832 11 6.77832Z" fill="#0035BD"/>
<path d="M6.05019 2.82854C4.78348 4.09528 4 5.84526 4 7.77822C4 9.95573 4.99426 11.901 6.55355 13.1849L7.97712 11.7613C6.7757 10.8481 6 9.40375 6 7.77822C6 6.39754 6.55962 5.14757 7.46441 4.24275L6.05019 2.82854Z" fill="#0035BD"/>
<path d="M14.5355 4.24264C15.4403 5.14747 16 6.39749 16 7.77822C16 9.4038 15.2243 10.8482 14.0228 11.7614L15.4463 13.185C17.0057 11.9011 18 9.95579 18 7.77822C18 5.8452 17.2165 4.09518 15.9497 2.82843L14.5355 4.24264Z" fill="#0035BD"/>
<path d="M0 7.77822C0 4.74068 1.23119 1.99071 3.22176 0.000105947L4.63598 1.41432C3.00733 3.04299 2 5.29297 2 7.77822C2 10.2635 3.00733 12.5134 4.63597 14.1421L3.22175 15.5563C1.23119 13.5657 0 10.8157 0 7.77822Z" fill="#0035BD"/>
<path d="M18.7781 15.5564C20.7688 13.5658 22 10.8158 22 7.77822C22 4.74063 20.7688 1.99061 18.7781 0L17.3639 1.41421C18.9926 3.0429 20 5.29292 20 7.77822C20 10.2635 18.9926 12.5135 17.3639 14.1422L18.7781 15.5564Z" fill="#0035BD"/>
</svg>
