<svg width="18" height="23" viewBox="0 0 18 23" fill="none" xmlns="http://www.w3.org/2000/svg">
<path fill-rule="evenodd" clip-rule="evenodd" d="M18 7.85787L11.0208 0.87868C9.84924 -0.292893 7.94975 -0.292893 6.77817 0.87868L0 7.65685V22.1715H7V16.1715C7 15.0669 7.89543 14.1715 9 14.1715C10.1046 14.1715 11 15.0669 11 16.1715V22.1715H18V7.85787ZM8.19239 2.29289L2 8.48528V20.1715H5V16.1715C5 13.9624 6.79086 12.1715 9 12.1715C11.2091 12.1715 13 13.9624 13 16.1715V20.1715H16V8.68629L9.6066 2.29289C9.21608 1.90237 8.58291 1.90237 8.19239 2.29289Z" fill="#ACACAC"/>
</svg>
