<svg width="40" height="40" viewBox="0 0 40 40" fill="none" xmlns="http://www.w3.org/2000/svg">
<path d="M22.2189 39.8299C22.2189 39.5651 22.2185 39.3473 22.2189 39.1294C22.2224 36.8725 22.228 34.6147 22.2267 32.3574C22.2267 31.281 21.8215 30.8415 20.7314 30.8436C19.1664 30.8488 17.6358 30.6542 16.1491 30.1733C11.6582 28.7228 9.36294 25.5118 8.80538 20.933C8.72315 20.2553 8.68354 19.5694 8.66718 18.8862C8.64393 17.9381 9.03831 17.4796 9.9756 17.325C10.2318 17.2828 10.4974 17.2893 10.7583 17.2893C15.5752 17.2867 20.3921 17.2867 25.2086 17.2854C26.0086 17.285 26.2703 16.9358 25.8411 16.2603C24.6851 14.4412 23.0955 13.1711 20.867 13.0605C18.9171 12.9632 16.9581 13.042 15.0035 13.0415C13.7019 13.0415 13.3661 12.7178 13.3541 11.4007C13.3407 9.92958 13.3485 8.45798 13.3472 6.98682C13.3472 6.70955 13.3472 6.43271 13.3472 6.15113C9.92006 6.42496 5.01144 13.4605 4.53957 18.2916C3.74909 26.3965 9.23636 33.9573 17.7021 35.3656C17.7021 36.8213 17.7021 38.2843 17.7021 39.8441C13.8135 39.4243 10.3639 37.9704 7.36479 35.4965C3.14805 32.0199 0.659947 27.5461 0.110144 22.0976C-1.13369 9.77415 8.37269 0.954052 17.74 0.155396C17.74 0.39736 17.7396 0.635451 17.74 0.87268C17.7404 3.00903 17.7396 5.14539 17.7413 7.28174C17.7426 8.40287 17.9794 8.56992 19.1216 8.66507C20.4201 8.77271 21.7346 8.89326 22.9956 9.20067C27.4246 10.2796 30.3937 13.6766 30.9396 18.1951C31.0382 19.0119 31.0752 19.8402 31.0774 20.6634C31.0795 21.4707 30.6201 21.9163 29.8094 21.9813C29.5085 22.0054 29.2049 21.9908 28.9031 21.9908C24.2274 21.9908 19.5513 22.011 14.876 21.9723C13.9702 21.9641 13.6473 22.498 14.1536 23.2876C15.2429 24.9848 16.7894 26.0345 18.7888 26.2045C20.5902 26.3578 22.4088 26.3027 24.2201 26.3388C24.5628 26.3457 24.9077 26.3285 25.2474 26.3634C26.2609 26.4684 26.7276 26.9636 26.7371 27.9805C26.7534 29.6936 26.7409 31.4068 26.7461 33.1203C26.747 33.352 26.7831 33.584 26.809 33.894C28.182 33.2641 29.3341 32.4646 30.3747 31.5148C33.1556 28.9755 34.8864 25.8325 35.3625 22.1032C36.0148 16.9879 34.4795 12.5524 30.8173 8.89843C28.5858 6.67209 25.879 5.32578 22.795 4.71183C22.6176 4.67652 22.33 4.50215 22.327 4.38677C22.2947 2.98363 22.3059 1.5792 22.3059 0.169603C30.9224 0.942858 39.5194 8.32839 39.9797 19.0812C40.4709 30.5414 31.7103 38.9284 22.2189 39.8299Z" fill="#0035BD"/>
</svg>
