<svg width="30" height="30" viewBox="0 0 30 30" fill="none" xmlns="http://www.w3.org/2000/svg">
<path d="M16.6642 29.8725C16.6642 29.6739 16.6639 29.5105 16.6642 29.3471C16.6668 27.6544 16.671 25.9611 16.67 24.2681C16.67 23.4608 16.3662 23.1311 15.5486 23.1327C14.3748 23.1366 13.2269 22.9907 12.1119 22.63C8.74362 21.5421 7.0222 19.1339 6.60404 15.6997C6.54236 15.1915 6.51266 14.6771 6.50038 14.1646C6.48295 13.4536 6.77873 13.1097 7.4817 12.9938C7.67383 12.9621 7.87306 12.967 8.06874 12.967C11.6814 12.965 15.2941 12.965 18.9065 12.9641C19.5064 12.9638 19.7028 12.7019 19.3808 12.1952C18.5138 10.831 17.3216 9.87838 15.6503 9.79539C14.1878 9.72241 12.7186 9.78151 11.2526 9.78118C10.2765 9.78118 10.0246 9.53836 10.0156 8.55058C10.0055 7.44721 10.0114 6.34352 10.0104 5.24014C10.0104 5.03219 10.0104 4.82456 10.0104 4.61338C7.44004 4.81875 3.75858 10.0954 3.40468 13.7187C2.81182 19.7974 6.92727 25.468 13.2766 26.5242C13.2766 27.616 13.2766 28.7132 13.2766 29.8831C10.3601 29.5683 7.77296 28.4778 5.52359 26.6224C2.36104 24.0149 0.49496 20.6596 0.0826081 16.5732C-0.85027 7.33064 6.27952 0.71557 13.305 0.116577C13.305 0.298051 13.3047 0.476618 13.305 0.65454C13.3053 2.2568 13.3047 3.85907 13.306 5.46133C13.3069 6.30218 13.4845 6.42747 14.3412 6.49883C15.3151 6.57956 16.3009 6.66997 17.2467 6.90053C20.5685 7.70974 22.7952 10.2575 23.2047 13.6464C23.2786 14.2589 23.3064 14.8802 23.308 15.4976C23.3096 16.1031 22.9651 16.4373 22.3571 16.486C22.1313 16.5041 21.9037 16.4931 21.6773 16.4931C18.1706 16.4931 14.6635 16.5083 11.157 16.4792C10.4776 16.4731 10.2354 16.8735 10.6152 17.4657C11.4321 18.7386 12.592 19.5259 14.0916 19.6534C15.4426 19.7684 16.8066 19.727 18.1651 19.7542C18.4221 19.7593 18.6808 19.7464 18.9355 19.7726C19.6957 19.8514 20.0457 20.2227 20.0528 20.9854C20.0651 22.2703 20.0557 23.5551 20.0596 24.8403C20.0602 25.014 20.0873 25.188 20.1067 25.4205C21.1365 24.9481 22.0006 24.3485 22.781 23.6362C24.8667 21.7316 26.1648 19.3744 26.5219 16.5774C27.0111 12.7409 25.8596 9.41436 23.113 6.67385C21.4394 5.0041 19.4092 3.99437 17.0963 3.5339C16.9632 3.50742 16.7475 3.37665 16.7453 3.29011C16.721 2.23775 16.7294 1.18443 16.7294 0.127233C23.1918 0.707174 29.6396 6.24632 29.9848 14.3109C30.3532 22.9061 23.7827 29.1963 16.6642 29.8725Z" fill="#C2C2C2"/>
</svg>
