<svg width="25" height="15" viewBox="0 0 25 15" fill="none" xmlns="http://www.w3.org/2000/svg">
<path d="M12.2325 14.5721H13.7264C13.7264 14.5721 14.1779 14.5221 14.4077 14.2736C14.6202 14.0455 14.6124 13.6174 14.6124 13.6174C14.6124 13.6174 14.5827 11.6125 15.514 11.3172C16.4312 11.0265 17.6094 13.2548 18.858 14.1127C19.8018 14.7612 20.519 14.619 20.519 14.619L23.8583 14.5721C23.8583 14.5721 25.6053 14.4643 24.7772 13.0907C24.71 12.9782 24.2943 12.075 22.2942 10.2187C20.2003 8.27477 20.4815 8.59042 23.0036 5.22923C24.5396 3.1822 25.1537 1.93211 24.9615 1.39769C24.7787 0.888281 23.649 1.02267 23.649 1.02267L19.8924 1.04454C19.8924 1.04454 19.6143 1.00704 19.4065 1.13049C19.2049 1.25237 19.0752 1.53364 19.0752 1.53364C19.0752 1.53364 18.4798 3.11813 17.686 4.46511C16.0125 7.30751 15.3421 7.45752 15.0686 7.28094C14.4327 6.86997 14.592 5.6277 14.592 4.74638C14.592 1.99149 15.0093 0.842965 13.7779 0.546068C13.3685 0.447624 13.0685 0.381994 12.0231 0.371055C10.6824 0.356992 9.54636 0.375743 8.90412 0.689829C8.47597 0.89922 8.14626 1.36644 8.34783 1.39301C8.59629 1.42582 9.15883 1.54458 9.45729 1.95086C9.84326 2.47434 9.82919 3.65255 9.82919 3.65255C9.82919 3.65255 10.0511 6.89498 9.31197 7.29813C8.80412 7.57471 8.10875 7.01061 6.61646 4.43073C5.85234 3.11032 5.27417 1.64928 5.27417 1.64928C5.27417 1.64928 5.16323 1.37738 4.96477 1.23206C4.72413 1.05548 4.38661 0.999227 4.38661 0.999227L0.814471 1.0211C0.814471 1.0211 0.278494 1.03673 0.0816048 1.26956C-0.093408 1.47739 0.0675413 1.90554 0.0675413 1.90554C0.0675413 1.90554 2.86462 8.44822 6.03048 11.7469C8.93538 14.7706 12.2325 14.5721 12.2325 14.5721Z" fill="#1E88E5"/>
</svg>
